<svg width="100" height="100" viewBox="0 0 100 100" fill="none" xmlns="http://www.w3.org/2000/svg">
<path d="M35.2311 38.9231C45.4271 38.9231 53.6926 30.6575 53.6926 20.4615C53.6926 10.2655 45.4271 2 35.2311 2C25.0351 2 16.7695 10.2655 16.7695 20.4615C16.7695 30.6575 25.0351 38.9231 35.2311 38.9231Z" stroke="#02ADB5" stroke-width="4" stroke-linecap="round" stroke-linejoin="round"/>
<path d="M46.3077 90.6154H2V86.6122C2.05879 80.9836 3.54321 75.4614 6.31461 70.5623C9.08606 65.6629 13.054 61.5459 17.8479 58.5958C22.6418 55.6457 28.1053 53.9587 33.7279 53.6926C39.3505 53.4264 44.9488 54.5897 50 57.0737" stroke="#02ADB5" stroke-width="4" stroke-linecap="round" stroke-linejoin="round"/>
<path d="M75.8477 53.6923V98" stroke="#02ADB5" stroke-width="4" stroke-linecap="round" stroke-linejoin="round"/>
<path d="M53.6914 75.8462H97.9991" stroke="#02ADB5" stroke-width="4" stroke-linecap="round" stroke-linejoin="round"/>
</svg>
