<svg width="18" height="18" viewBox="0 0 18 18" fill="none" xmlns="http://www.w3.org/2000/svg">
<path d="M1.28613 4.5H16.7147" stroke="white" stroke-linecap="round" stroke-linejoin="round"/>
<path d="M3.21484 4.5H14.7863V16.0714C14.7863 16.4124 14.6508 16.7395 14.4097 16.9806C14.1686 17.2216 13.8415 17.3571 13.5006 17.3571H4.50056C4.15956 17.3571 3.83254 17.2216 3.59142 16.9806C3.35031 16.7395 3.21484 16.4124 3.21484 16.0714V4.5Z" stroke="white" stroke-linecap="round" stroke-linejoin="round"/>
<path d="M5.78613 4.5V3.85715C5.78613 3.00467 6.12478 2.18709 6.72757 1.5843C7.33037 0.981507 8.14794 0.64286 9.00042 0.64286C9.8529 0.64286 10.6705 0.981507 11.2733 1.5843C11.8761 2.18709 12.2147 3.00467 12.2147 3.85715V4.5" stroke="white" stroke-linecap="round" stroke-linejoin="round"/>
<path d="M7.07227 8.35902V13.5039" stroke="white" stroke-linecap="round" stroke-linejoin="round"/>
<path d="M10.9287 8.35902V13.5039" stroke="white" stroke-linecap="round" stroke-linejoin="round"/>
</svg>
