<svg width="40" height="40" viewBox="0 0 40 40" fill="none" xmlns="http://www.w3.org/2000/svg">
<g clip-path="url(#clip0_9_34)">
<path d="M1.42859 35.7142V4.28561C1.42859 3.52784 1.72961 2.80112 2.26543 2.2653C2.80125 1.72949 3.52796 1.42847 4.28573 1.42847H35.7143C36.472 1.42847 37.1989 1.72949 37.7346 2.2653C38.2703 2.80112 38.5714 3.52784 38.5714 4.28561V35.7142C38.5714 36.4719 38.2703 37.1988 37.7346 37.7345C37.1989 38.2702 36.472 38.5713 35.7143 38.5713H27.1429V25.0285H29.1714C29.6337 25.0285 30.0769 24.8448 30.4037 24.518C30.7306 24.1912 30.9143 23.7478 30.9143 23.2856V21.0856C30.9143 20.8567 30.8692 20.6301 30.7817 20.4186C30.694 20.2072 30.5657 20.0151 30.4037 19.8532C30.242 19.6914 30.0497 19.563 29.8383 19.4754C29.6269 19.3878 29.4003 19.3428 29.1714 19.3428H27.2572V16.657C27.2572 14.257 28.3429 14.257 29.4286 14.257H30.8286C31.0586 14.2665 31.2877 14.2254 31.5 14.1365C31.7123 14.0476 31.9026 13.9132 32.0572 13.7428C32.2232 13.5847 32.3546 13.3939 32.4432 13.1824C32.5317 12.9709 32.5754 12.7434 32.5714 12.5142V10.3999C32.5792 10.1672 32.5409 9.93535 32.4586 9.71752C32.3766 9.49967 32.2526 9.30012 32.0932 9.1303C31.934 8.9605 31.7429 8.8237 31.5309 8.72778C31.3189 8.63187 31.0897 8.5787 30.8572 8.57132H27.5714C26.6127 8.53527 25.6576 8.70778 24.772 9.07692C23.8865 9.44604 23.0916 10.003 22.4424 10.7093C21.7931 11.4157 21.3049 12.2545 21.0115 13.1679C20.718 14.0814 20.6264 15.0476 20.7429 15.9999V19.3428H18.9143C18.683 19.339 18.4533 19.3812 18.2386 19.4671C18.0238 19.553 17.8283 19.6808 17.6634 19.843C17.4985 20.0052 17.3676 20.1986 17.2782 20.412C17.1888 20.6253 17.1428 20.8543 17.1429 21.0856V23.2856C17.1428 23.5169 17.1888 23.7459 17.2782 23.9592C17.3676 24.1726 17.4985 24.366 17.6634 24.5282C17.8283 24.6904 18.0238 24.8182 18.2386 24.9041C18.4533 24.99 18.683 25.0323 18.9143 25.0285H20.7429V38.5713H4.28573C3.52796 38.5713 2.80125 38.2702 2.26543 37.7345C1.72961 37.1988 1.42859 36.4719 1.42859 35.7142Z" stroke="white" stroke-width="2" stroke-linecap="round" stroke-linejoin="round"/>
</g>
<defs>
<clipPath id="clip0_9_34">
<rect width="40" height="40" fill="white"/>
</clipPath>
</defs>
</svg>
