<svg width="40" height="40" viewBox="0 0 40 40" fill="none" xmlns="http://www.w3.org/2000/svg">
<path d="M10.2104 5.04841C10.2181 6.03635 9.83678 6.98764 9.14884 7.69675C8.46092 8.40584 7.52161 8.81581 6.53389 8.83807C5.54824 8.8019 4.61415 8.38847 3.92464 7.68315C3.23515 6.97787 2.84294 6.03467 2.8291 5.04841C2.87195 4.08755 3.27855 3.1789 3.96652 2.5067C4.65446 1.8345 5.57229 1.44905 6.53389 1.42847C7.49272 1.44943 8.40729 1.83584 9.09066 2.50871C9.77404 3.18158 10.1746 4.09007 10.2104 5.04841ZM3.22504 15.5689C3.22504 13.3913 4.61081 13.7307 6.53389 13.7307C8.45701 13.7307 9.81449 13.3913 9.81449 15.5689V36.7796C9.81449 38.9856 8.42872 38.533 6.53389 38.533C4.63909 38.533 3.22504 38.9856 3.22504 36.7796V15.5689Z" stroke="white" stroke-width="2" stroke-linecap="round" stroke-linejoin="round"/>
<path d="M15.5272 15.5693C15.5272 14.3532 15.9797 13.9007 16.6867 13.7593C17.3938 13.6179 19.8259 13.7593 20.6743 13.7593C21.5228 13.7593 21.8621 15.1451 21.8338 16.1915C22.5596 15.2175 23.5231 14.446 24.6323 13.9508C25.7415 13.4557 26.9591 13.2534 28.1688 13.3634C29.3566 13.2908 30.5466 13.4689 31.6612 13.8861C32.7755 14.3033 33.79 14.9504 34.638 15.7852C35.4863 16.6201 36.1492 17.624 36.5841 18.7318C37.0189 19.8396 37.2158 21.0265 37.162 22.2153V36.6951C37.162 38.9011 35.8046 38.4485 33.8815 38.4485C31.9583 38.4485 30.6009 38.9011 30.6009 36.6951V25.3828C30.6506 24.8006 30.5746 24.2145 30.3778 23.6643C30.1809 23.1141 29.8678 22.6128 29.46 22.1943C29.0523 21.7757 28.5592 21.4499 28.0143 21.2388C27.4695 21.0277 26.8856 20.9364 26.3022 20.971C25.7216 20.9562 25.1445 21.065 24.6091 21.29C24.0737 21.5151 23.5922 21.8513 23.1965 22.2764C22.8008 22.7015 22.4999 23.2059 22.3137 23.756C22.1276 24.3061 22.0604 24.8896 22.1167 25.4676V36.78C22.1167 38.986 20.7309 38.5334 18.8078 38.5334C16.8847 38.5334 15.5272 38.986 15.5272 36.78V15.5693Z" stroke="white" stroke-width="2" stroke-linecap="round" stroke-linejoin="round"/>
</svg>
