<svg width="100" height="101" viewBox="0 0 100 101" fill="none" xmlns="http://www.w3.org/2000/svg">
<path d="M96.7158 61.4349C91.715 82.6044 72.6974 98.358 50 98.358C23.4903 98.358 2 76.868 2 50.358C2 23.8484 23.4903 2.35802 50 2.35802C68.5185 2.35802 84.5881 12.845 92.593 28.2042" stroke="#02ADB5" stroke-width="4" stroke-linecap="round"/>
<path d="M97.9996 13.4349V31.8965H79.5381" stroke="#02ADB5" stroke-width="4" stroke-linecap="round" stroke-linejoin="round"/>
<path d="M33.3848 66.9734V52.2042C33.3848 50.165 35.0379 48.5119 37.0771 48.5119H62.9232C64.9624 48.5119 66.6155 50.165 66.6155 52.2042V66.9734C66.6155 69.0126 64.9624 70.6657 62.9232 70.6657H37.0771C35.0379 70.6657 33.3848 69.0126 33.3848 66.9734Z" stroke="#02ADB5" stroke-width="4" stroke-linejoin="round"/>
<path d="M38.9238 48.5119V41.1273C38.9238 35.0096 43.8831 30.0503 50.0008 30.0503C56.1184 30.0503 61.0777 35.0096 61.0777 41.1273V48.5119" stroke="#02ADB5" stroke-width="4" stroke-linecap="round" stroke-linejoin="round"/>
</svg>
