<svg width="16" height="16" viewBox="0 0 16 16" fill="none" xmlns="http://www.w3.org/2000/svg">
<g clip-path="url(#clip0_6_20948)">
<path d="M5.71415 13.9886L0.571289 15.4286L2.01129 10.2857L11.4284 0.914307C11.5348 0.805454 11.662 0.718964 11.8023 0.659916C11.9426 0.600867 12.0933 0.57045 12.2456 0.57045C12.3978 0.57045 12.5485 0.600867 12.6889 0.659916C12.8291 0.718964 12.9563 0.805454 13.0627 0.914307L15.0856 2.94859C15.1927 3.05483 15.2777 3.18124 15.3357 3.3205C15.3938 3.45977 15.4236 3.60915 15.4236 3.76002C15.4236 3.91089 15.3938 4.06027 15.3357 4.19954C15.2777 4.33881 15.1927 4.46521 15.0856 4.57145L5.71415 13.9886Z" stroke="white" stroke-linecap="round" stroke-linejoin="round"/>
</g>
<defs>
<clipPath id="clip0_6_20948">
<rect width="16" height="16" fill="white"/>
</clipPath>
</defs>
</svg>
